<svg xmlns="http://www.w3.org/2000/svg" viewBox="0 0 64 64">
  <rect width="64" height="64" rx="14" fill="#F4F2EC"/>
  <path d="M14 20 H40 A7 7 0 0 1 47 27 V37 A7 7 0 0 1 40 44 H26 L17 52 V44 A7 7 0 0 1 10 37 V27 A7 7 0 0 1 14 20 Z" fill="#4A2B50"/>
  <g fill="#F4F2EC">
    <circle cx="20" cy="32" r="2.4"/>
    <circle cx="28.5" cy="32" r="2.4"/>
    <circle cx="37" cy="32" r="2.4"/>
  </g>
  <circle cx="46" cy="45" r="12" fill="#F4F2EC"/>
  <circle cx="46" cy="45" r="9.5" fill="#5C8A6B"/>
  <path d="M41.5 45 l3 3 L51 41.5" fill="none" stroke="#FFFFFF" stroke-width="2.6" stroke-linecap="round" stroke-linejoin="round"/>
</svg>
